# xmcd CD database file
#
# Track frame offsets:
#	150
#	32287
#	59100
#	102575
#	134725
#	169050
#
# Disc length: 2775 seconds
#
# Revision: 0
# Processed by: cddbd v1.5PL3 Copyright (c) Steve Scherf et al.
# Submitted via: CDex 1.51
#
DISCID=550ad506
DTITLE=MIKE NOCK QUARTET - IN OUT AND AROUND
DYEAR=1978
DGENRE=Jazz
TTITLE0=Break Time
TTITLE1=Dark Light
TTITLE2=Shadows of Forgotten Love
TTITLE3=The Gift
TTITLE4=Hadrians Wall
TTITLE5=In Out and Around
EXTD=YEAR: 1978
EXTT0=
EXTT1=
EXTT2=
EXTT3=
EXTT4=
EXTT5=
PLAYORDER=
